HIERARCHY
ROOT Hip
{
	OFFSET 0 1.131 0.0052
	CHANNELS 6 Xposition Yposition Zposition Xrotation Yrotation Zrotation
	JOINT Abdomen
	{
		OFFSET 0 -0.047353 -0.05
		CHANNELS 3 Xrotation Zrotation Yrotation
		JOINT Chest
		{
			OFFSET 0 0.132153 0.007439
			CHANNELS 3 Xrotation Zrotation Yrotation
			JOINT Neck
			{
				OFFSET 0 0.3078 0.006161
				CHANNELS 3 Xrotation Zrotation Yrotation
				JOINT Head_comp
				{
					OFFSET 0 0.0884 0.013
					CHANNELS 3 Xrotation Yrotation Zrotation
					End Site
					{
						OFFSET -0 0.156 0.0624
					}
				}
			}
			JOINT Left_Collar
			{
				OFFSET 0.02282 0.250342 0.017193
				CHANNELS 2 Yrotation Zrotation
				JOINT Left_Shoulder
				{
					OFFSET 0.15421 0 0
					CHANNELS 3 Xrotation Yrotation Zrotation
					JOINT Left_Forearm
					{
						OFFSET 0.265212 0 0
						CHANNELS 2 Yrotation Xrotation
						JOINT Left_Hand
						{
							OFFSET 0.27571 0 0
							CHANNELS 2 Zrotation Yrotation
							JOINT L1ProxPhalanx
							{
								OFFSET 0.014142 0.001733 0.014142
								CHANNELS 3 Yrotation Zrotation Xrotation
								JOINT L1MidPhalanx
								{
									OFFSET 0.04 0 0
									CHANNELS 1 Zrotation
									JOINT L1DistPhalanx
									{
										OFFSET 0.035 0 0
										CHANNELS 1 Zrotation
										End Site
										{
											OFFSET 0.029 -0 -0
										}
									}
								}
							}
							JOINT L2ProxPhalanx
							{
								OFFSET 0.0821037 0.001578 0.0219996
								CHANNELS 2 Yrotation Zrotation
								JOINT L2MidPhalanx
								{
									OFFSET 0.04 0 0
									CHANNELS 1 Zrotation
									JOINT L2DistPhalanx
									{
										OFFSET 0.028 0 0
										CHANNELS 1 Zrotation
										End Site
										{
											OFFSET 0.02 -0 -0
										}
									}
								}
							}
							JOINT L3ProxPhalanx
							{
								OFFSET 0.083 0 0
								CHANNELS 2 Yrotation Zrotation
								JOINT L3MidPhalanx
								{
									OFFSET 0.053 0 0
									CHANNELS 1 Zrotation
									JOINT L3DistPhalanx
									{
										OFFSET 0.03 0 0
										CHANNELS 1 Zrotation
										End Site
										{
											OFFSET 0.023 -0 -0
										}
									}
								}
							}
							JOINT L4ProxPhalanx
							{
								OFFSET 0.077274 -0.000761 -0.0207055
								CHANNELS 2 Yrotation Zrotation
								JOINT L4MidPhalanx
								{
									OFFSET 0.05 0 0
									CHANNELS 1 Zrotation
									JOINT L4DistPhalanx
									{
										OFFSET 0.03 0 0
										CHANNELS 1 Zrotation
										End Site
										{
											OFFSET 0.023 -0 -0
										}
									}
								}
							}
							JOINT L5ProxPhalanx
							{
								OFFSET 0.0675499 -0.001644 -0.039
								CHANNELS 2 Yrotation Zrotation
								JOINT L5MidPhalanx
								{
									OFFSET 0.04 0 0
									CHANNELS 1 Zrotation
									JOINT L5DistPhalanx
									{
										OFFSET 0.021 0 0
										CHANNELS 1 Zrotation
										End Site
										{
											OFFSET 0.022 -0 -0
										}
									}
								}
							}
						}
					}
				}
			}
			JOINT Right_Collar
			{
				OFFSET -0.02282 0.250342 0.017193
				CHANNELS 2 Yrotation Zrotation
				JOINT Right_Shoulder
				{
					OFFSET -0.15421 0 0
					CHANNELS 3 Xrotation Yrotation Zrotation
					JOINT Right_Forearm
					{
						OFFSET -0.265212 0 0
						CHANNELS 2 Yrotation Xrotation
						JOINT Right_Hand
						{
							OFFSET -0.27571 3e-006 0
							CHANNELS 2 Zrotation Yrotation
							JOINT R1ProxPhalanx
							{
								OFFSET -0.014142 0.001733 0.014142
								CHANNELS 3 Yrotation Zrotation Xrotation
								JOINT R1MidPhalanx
								{
									OFFSET -0.04 0 0
									CHANNELS 1 Zrotation
									JOINT R1DistPhalanx
									{
										OFFSET -0.035 0 0
										CHANNELS 1 Zrotation
										End Site
										{
											OFFSET -0.029 -0 -0
										}
									}
								}
							}
							JOINT R2ProxPhalanx
							{
								OFFSET -0.0821037 0.001578 0.0219996
								CHANNELS 2 Yrotation Zrotation
								JOINT R2MidPhalanx
								{
									OFFSET -0.04 0 0
									CHANNELS 1 Zrotation
									JOINT R2DistPhalanx
									{
										OFFSET -0.028 0 0
										CHANNELS 1 Zrotation
										End Site
										{
											OFFSET -0.02 -0 -0
										}
									}
								}
							}
							JOINT R3ProxPhalanx
							{
								OFFSET -0.083 0 0
								CHANNELS 2 Yrotation Zrotation
								JOINT R3MidPhalanx
								{
									OFFSET -0.053 0 0
									CHANNELS 1 Zrotation
									JOINT R3DistPhalanx
									{
										OFFSET -0.03 0 0
										CHANNELS 1 Zrotation
										End Site
										{
											OFFSET -0.023 -0 -0
										}
									}
								}
							}
							JOINT R4ProxPhalanx
							{
								OFFSET -0.077274 -0.000761 -0.0207055
								CHANNELS 2 Yrotation Zrotation
								JOINT R4MidPhalanx
								{
									OFFSET -0.05 0 0
									CHANNELS 1 Zrotation
									JOINT R4DistPhalanx
									{
										OFFSET -0.03 0 0
										CHANNELS 1 Zrotation
										End Site
										{
											OFFSET -0.023 -0 -0
										}
									}
								}
							}
							JOINT R5ProxPhalanx
							{
								OFFSET -0.0675499 -0.001644 -0.039
								CHANNELS 2 Yrotation Zrotation
								JOINT R5MidPhalanx
								{
									OFFSET -0.04 0 0
									CHANNELS 1 Zrotation
									JOINT R5DistPhalanx
									{
										OFFSET -0.021 0 0
										CHANNELS 1 Zrotation
										End Site
										{
											OFFSET -0.022 -0 -0
										}
									}
								}
							}
						}
					}
				}
			}
		}
	}
	JOINT Left_Thigh
	{
		OFFSET 0.1118 -0.1612 -0.0442
		CHANNELS 3 Xrotation Zrotation Yrotation
		JOINT Left_Shin
		{
			OFFSET 0 -0.477856 0
			CHANNELS 1 Xrotation
			JOINT Left_Foot
			{
				OFFSET 0 -0.431952 0
				CHANNELS 2 Xrotation Zrotation
				JOINT Left_Toe
				{
					OFFSET 0 -0.0442 0.119
					CHANNELS 1 Xrotation
					End Site
					{
						OFFSET -0 -0 0.07
					}
				}
			}
		}
	}
	JOINT Right_Thigh
	{
		OFFSET -0.1118 -0.1612 -0.0442
		CHANNELS 3 Xrotation Zrotation Yrotation
		JOINT Right_Shin
		{
			OFFSET 0 -0.477856 0
			CHANNELS 1 Xrotation
			JOINT Right_Foot
			{
				OFFSET 0 -0.431952 0
				CHANNELS 2 Xrotation Zrotation
				JOINT Right_Toe
				{
					OFFSET 0 -0.0442 0.119
					CHANNELS 1 Xrotation
					End Site
					{
						OFFSET -0 -0 0.07
					}
				}
			}
		}
	}
}
MOTION
Frames: 9
Frame Time: 0.009975
-0.103403 -0.0601796 0.0554576 1.9565e-013 9.24307e-008 -5.1087e-006 0 0 0 0 0 0 0 0 0 0 0 0 0 0 -0 0 -0 0 0 0 0 17.2292 -63.3717 158.952 -14.6394 -28.6478 18.6116 -30.3516 3.54976 -1.06129 21.0373 -48.1228 -36.9983 -64.954 40.8989 -25.0388 -79.8348 -58.568 40.6932 0.489535 -165.076 41.159 0 0 -0 0 -0 0 0 0 0 37.9386 28.008 73.698 26.2405 28.4472 13.118 18.2167 29.0248 19.6359 0 22.4358 32.6146 28.1246 -8.63175 30.7051 32.2053 23.7634 -7.83088 26.7354 35.1526 30.0193 1.02512 -0.528814 -0.00946237 0.0240216 -1.0491 0.528903 0 1.03653 -0.528812 -0.00956763 2.41484e-006 -1.03649 0.528903 0 
-0.103403 -0.0601796 0.0554576 1.9565e-013 9.24307e-008 -5.1087e-006 0 0 0 0 0 0 0 0 0 0 0 0 0 0 -0 0 -0 0 0 0 0 17.2292 -63.3717 158.952 -14.6394 -28.6478 18.6116 -30.3516 3.54976 -1.06129 21.0373 -48.1228 -36.9983 -64.954 40.8989 -25.0388 -79.8348 -58.568 40.6932 0.489535 -165.076 41.159 0 0 -0 0 -0 0 0 0 0 37.9386 28.008 73.698 26.2405 28.4472 13.118 18.2167 29.0248 19.6359 0 22.4358 32.6146 28.1246 -8.63175 30.7051 32.2053 23.7634 -7.83088 26.7354 35.1526 30.0193 1.02512 -0.528814 -0.00946237 0.0240216 -1.0491 0.528903 0 1.03653 -0.528812 -0.00956763 2.41484e-006 -1.03649 0.528903 0 
-0.101405 -0.060125 0.0505165 3.16627e-015 6.46832e-008 -5.0837e-006 0 -0 0 0 -0 0 0 -0 0 -0.710525 0.291125 -9.07107e-006 7.89252 -24.5885 11.4801 -20.8977 -26.6392 -79.7579 3.3455 15.3232 5.3823 16.5618 -63.4083 158.254 -14.7412 -28.6045 18.5136 -30.3499 3.33201 -1.13098 20.9328 -48.0431 -37.0134 -64.7193 40.7022 -25.0722 -79.6356 -58.3651 40.5224 0.372649 -164.421 40.8532 -7.89252 24.5885 11.4801 20.8977 26.6392 79.7579 3.3455 -15.3232 -5.3823 -16.5618 63.4083 158.254 14.7412 28.6045 -18.5136 30.3499 -3.33201 1.13098 -20.9328 48.0431 37.0134 64.7193 -40.7022 25.0722 79.6356 58.3651 -40.5224 -0.372649 164.421 -40.8532 0.713978 -0.654637 -0.00817841 0.0239015 -0.737833 0.654693 0 0.725326 -0.654635 -0.0083084 1.69901e-006 -0.725281 0.654693 0 
-0.10135 -0.0601215 0.0502442 3.19667e-015 6.50082e-008 -5.10925e-006 0 -0 0 0 -0 0 0 -0 0 -0.712955 0.291162 -1.07311e-010 7.93157 -24.7119 11.8512 -20.2124 -24.4813 -80.847 3.35948 15.4001 5.40918 17.2292 -63.3717 158.952 -14.6394 -28.6478 18.6116 -30.3516 3.54976 -1.06129 21.0373 -48.1228 -36.9983 -64.954 40.8989 -25.0388 -79.8348 -58.568 40.6932 0.489535 -165.076 41.159 -7.93157 24.7119 11.8512 20.2124 24.4813 80.847 3.35948 -15.4001 -5.40918 -17.2292 63.3717 158.952 14.6394 28.6478 -18.6116 30.3516 -3.54976 1.06129 -21.0373 48.1228 36.9983 64.954 -40.8989 25.0388 79.8348 58.568 -40.6932 -0.489535 165.076 -41.159 0.69677 -0.658113 -0.00800355 0.0240216 -0.720746 0.658167 0 0.708176 -0.658111 -0.00813455 1.70755e-006 -0.708131 0.658167 0 
-0.10135 -0.0601217 0.0502626 -7.4771e-013 6.32574e-008 -5.10927e-006 0 -0 0 0 -0 0 0 -0 0 -0.712949 0.29115 1.94516e-016 7.93157 -24.7119 11.853 -20.2067 -24.4675 -80.8522 3.35948 15.4001 5.40918 17.2292 -63.3717 158.952 -14.6394 -28.6478 18.6116 -30.3516 3.54976 -1.06129 21.0373 -48.1228 -36.9983 -64.954 40.8989 -25.0388 -79.8348 -58.568 40.6932 0.489535 -165.076 41.159 -7.93157 24.7119 11.853 20.2067 24.4675 80.8522 3.35948 -15.4001 -5.40918 -17.2292 63.3717 158.952 14.6394 28.6478 -18.6116 30.3516 -3.54976 1.06129 -21.0373 48.1228 36.9983 64.954 -40.8989 25.0388 79.8348 58.568 -40.6932 -0.489535 165.076 -41.159 0.697932 -0.658116 -0.00801694 0.0240216 -0.721908 0.65817 0 0.709338 -0.658115 -0.00814794 1.70755e-006 -0.709293 0.65817 0 
-0.10135 -0.0601218 0.050263 1.0363e-012 6.32596e-008 -5.10927e-006 0 -0 0 0 -0 0 0 -0 0 -0.712949 0.29115 -0 7.93157 -24.7119 11.853 -20.2067 -24.4675 -80.8522 3.35948 15.4001 5.40918 17.2292 -63.3717 158.952 -14.6394 -28.6478 18.6116 -30.3516 3.54976 -1.06129 21.0373 -48.1228 -36.9983 -64.954 40.8989 -25.0388 -79.8348 -58.568 40.6932 0.489535 -165.076 41.159 -7.93157 24.7119 11.853 20.2067 24.4675 80.8522 3.35948 -15.4001 -5.40918 -17.2292 63.3717 158.952 14.6394 28.6478 -18.6116 30.3516 -3.54976 1.06129 -21.0373 48.1228 36.9983 64.954 -40.8989 25.0388 79.8348 58.568 -40.6932 -0.489535 165.076 -41.159 0.697956 -0.658116 -0.00801722 0.0240216 -0.721932 0.65817 0 0.709362 -0.658115 -0.00814822 2.41484e-006 -0.709317 0.65817 0 
-0.10135 -0.0601218 0.050263 1.05901e-012 6.32596e-008 -5.10927e-006 0 -0 0 0 -0 0 0 -0 0 -0.71295 0.29115 -3.88256e-019 7.93157 -24.7119 11.853 -20.2067 -24.4675 -80.8522 3.35948 15.4001 5.40918 17.2292 -63.3717 158.952 -14.6394 -28.6478 18.6116 -30.3516 3.54976 -1.06129 21.0373 -48.1228 -36.9983 -64.954 40.8989 -25.0388 -79.8348 -58.568 40.6932 0.489535 -165.076 41.159 -7.93157 24.7119 11.853 20.2067 24.4675 80.8522 3.35948 -15.4001 -5.40918 -17.2292 63.3717 158.952 14.6394 28.6478 -18.6116 30.3516 -3.54976 1.06129 -21.0373 48.1228 36.9983 64.954 -40.8989 25.0388 79.8348 58.568 -40.6932 -0.489535 165.076 -41.159 0.697956 -0.658116 -0.00801722 0.0240216 -0.721932 0.65817 0 0.709362 -0.658115 -0.00814822 2.41484e-006 -0.709318 0.65817 0 
-0.10135 -0.0601218 0.050263 -5.58846e-013 6.32596e-008 -5.10927e-006 0 -0 0 0 -0 0 0 -0 0 -0.71295 0.29115 -0 7.93157 -24.7119 11.853 -20.2067 -24.4675 -80.8522 3.35948 15.4001 5.40918 17.2292 -63.3717 158.952 -14.6394 -28.6478 18.6116 -30.3516 3.54976 -1.06129 21.0373 -48.1228 -36.9983 -64.954 40.8989 -25.0388 -79.8348 -58.568 40.6932 0.489535 -165.076 41.159 -7.93157 24.7119 11.853 20.2067 24.4675 80.8522 3.35948 -15.4001 -5.40918 -17.2292 63.3717 158.952 14.6394 28.6478 -18.6116 30.3516 -3.54976 1.06129 -21.0373 48.1228 36.9983 64.954 -40.8989 25.0388 79.8348 58.568 -40.6932 -0.489535 165.076 -41.159 0.697957 -0.658116 -0.00801722 0.0240216 -0.721932 0.65817 0 0.709362 -0.658115 -0.00814823 1.70755e-006 -0.709317 0.65817 0 
-0.10135 -0.0601218 0.050263 4.11919e-013 6.32596e-008 -5.10927e-006 0 -0 0 0 -0 0 0 -0 0 -0.71295 0.29115 -3.88256e-019 7.93157 -24.7119 11.853 -20.2067 -24.4675 -80.8522 3.35948 15.4001 5.40918 17.2292 -63.3717 158.952 -14.6394 -28.6478 18.6116 -30.3516 3.54976 -1.06129 21.0373 -48.1228 -36.9983 -64.954 40.8989 -25.0388 -79.8348 -58.568 40.6932 0.489535 -165.076 41.159 -7.93157 24.7119 11.853 20.2067 24.4675 80.8522 3.35948 -15.4001 -5.40918 -17.2292 63.3717 158.952 14.6394 28.6478 -18.6116 30.3516 -3.54976 1.06129 -21.0373 48.1228 36.9983 64.954 -40.8989 25.0388 79.8348 58.568 -40.6932 -0.489535 165.076 -41.159 0.697957 -0.658116 -0.00801722 0.0240216 -0.721932 0.65817 0 0.709362 -0.658115 -0.00814823 2.41484e-006 -0.709318 0.65817 0 
